<?xml version="1.0" encoding="utf-8" standalone="no"?>
<!DOCTYPE svg PUBLIC "-//W3C//DTD SVG 1.1//EN"
  "http://www.w3.org/Graphics/SVG/1.1/DTD/svg11.dtd">
<!-- Created with matplotlib (http://matplotlib.org/) -->
<svg height="216pt" version="1.1" viewBox="0 0 288 216" width="288pt" xmlns="http://www.w3.org/2000/svg" xmlns:xlink="http://www.w3.org/1999/xlink">
 <defs>
  <style type="text/css">
*{stroke-linecap:butt;stroke-linejoin:round;}
  </style>
 </defs>
 <g id="figure_1">
  <g id="patch_1">
   <path d="M 0 216 
L 288 216 
L 288 0 
L 0 0 
z
" style="fill:#ffffff;"/>
  </g>
  <g id="patch_2">
   <path d="M 15 201 
L 273 201 
L 273 15 
L 15 15 
z
" style="fill:#ffffff;"/>
  </g>
  <g id="axes_1">
   <g id="Path3DCollection_1">
    <defs>
     <path d="M 0 4 
C 1.060812 4 2.078319 3.578535 2.828427 2.828427 
C 3.578535 2.078319 4 1.060812 4 0 
C 4 -1.060812 3.578535 -2.078319 2.828427 -2.828427 
C 2.078319 -3.578535 1.060812 -4 0 -4 
C -1.060812 -4 -2.078319 -3.578535 -2.828427 -2.828427 
C -3.578535 -2.078319 -4 -1.060812 -4 0 
C -4 1.060812 -3.578535 2.078319 -2.828427 2.828427 
C -2.078319 3.578535 -1.060812 4 0 4 
z
" id="C0_0_a368618839"/>
    </defs>
    <g clip-path="url(#p45d7a85f9e)">
     <use style="fill-opacity:0.689486;stroke:#000000;stroke-opacity:0.689486;" x="89.600582" xlink:href="#C0_0_a368618839" y="160.834157"/>
    </g>
    <g clip-path="url(#p45d7a85f9e)">
     <use style="fill-opacity:0.857975;stroke:#000000;stroke-opacity:0.857975;" x="87.711925" xlink:href="#C0_0_a368618839" y="72.512877"/>
    </g>
    <g clip-path="url(#p45d7a85f9e)">
     <use style="fill-opacity:0.3;stroke:#000000;stroke-opacity:0.3;" x="134.707122" xlink:href="#C0_0_a368618839" y="129.059838"/>
    </g>
    <g clip-path="url(#p45d7a85f9e)">
     <use style="fill-opacity:0.443678;stroke:#000000;stroke-opacity:0.443678;" x="134.322561" xlink:href="#C0_0_a368618839" y="46.644248"/>
    </g>
    <g clip-path="url(#p45d7a85f9e)">
     <use style="fill-opacity:0.626096;stroke:#000000;stroke-opacity:0.626096;" x="162.663811" xlink:href="#C0_0_a368618839" y="106.848577"/>
    </g>
    <g clip-path="url(#p45d7a85f9e)">
     <use style="fill-opacity:0.822566;stroke:#000000;stroke-opacity:0.822566;" x="193.188386" xlink:href="#C0_0_a368618839" y="171.690867"/>
    </g>
    <g clip-path="url(#p45d7a85f9e)">
     <use style="stroke:#000000;" x="194.719226" xlink:href="#C0_0_a368618839" y="81.380927"/>
    </g>
    <g clip-path="url(#p45d7a85f9e)">
     <use style="fill-opacity:0.413542;stroke:#000000;stroke-opacity:0.413542;" x="231.368958" xlink:href="#C0_0_a368618839" y="138.322626"/>
    </g>
    <g clip-path="url(#p45d7a85f9e)">
     <use style="fill-opacity:0.564243;stroke:#000000;stroke-opacity:0.564243;" x="233.955057" xlink:href="#C0_0_a368618839" y="54.172296"/>
    </g>
   </g>
   <g id="Line3DCollection_1">
    <path clip-path="url(#p45d7a85f9e)" d="M 89.600582 160.834157 
L 87.711925 72.512877 
" style="fill:none;stroke:#1f77b4;stroke-width:0.2;"/>
    <path clip-path="url(#p45d7a85f9e)" d="M 87.711925 72.512877 
L 134.322561 46.644248 
" style="fill:none;stroke:#1f77b4;stroke-width:0.2;"/>
    <path clip-path="url(#p45d7a85f9e)" d="M 134.322561 46.644248 
L 134.707122 129.059838 
" style="fill:none;stroke:#1f77b4;stroke-width:0.2;"/>
    <path clip-path="url(#p45d7a85f9e)" d="M 134.707122 129.059838 
L 89.600582 160.834157 
" style="fill:none;stroke:#1f77b4;stroke-width:0.2;"/>
    <path clip-path="url(#p45d7a85f9e)" d="M 193.188386 171.690867 
L 194.719226 81.380927 
" style="fill:none;stroke:#1f77b4;stroke-width:0.2;"/>
    <path clip-path="url(#p45d7a85f9e)" d="M 194.719226 81.380927 
L 233.955057 54.172296 
" style="fill:none;stroke:#1f77b4;stroke-width:0.2;"/>
    <path clip-path="url(#p45d7a85f9e)" d="M 233.955057 54.172296 
L 231.368958 138.322626 
" style="fill:none;stroke:#1f77b4;stroke-width:0.2;"/>
    <path clip-path="url(#p45d7a85f9e)" d="M 231.368958 138.322626 
L 193.188386 171.690867 
" style="fill:none;stroke:#1f77b4;stroke-width:0.2;"/>
    <path clip-path="url(#p45d7a85f9e)" d="M 89.600582 160.834157 
L 193.188386 171.690867 
" style="fill:none;stroke:#1f77b4;stroke-width:0.2;"/>
    <path clip-path="url(#p45d7a85f9e)" d="M 87.711925 72.512877 
L 194.719226 81.380927 
" style="fill:none;stroke:#1f77b4;stroke-width:0.2;"/>
    <path clip-path="url(#p45d7a85f9e)" d="M 134.707122 129.059838 
L 231.368958 138.322626 
" style="fill:none;stroke:#1f77b4;stroke-width:0.2;"/>
    <path clip-path="url(#p45d7a85f9e)" d="M 134.322561 46.644248 
L 233.955057 54.172296 
" style="fill:none;stroke:#1f77b4;stroke-width:0.2;"/>
   </g>
   <g id="patch_3">
    <path clip-path="url(#p45d7a85f9e)" d="M 40.01456 112.807719 
Q 58.230179 114.520328 75.332672 116.128282 
" style="fill:none;stroke:#000000;stroke-linecap:round;"/>
    <path clip-path="url(#p45d7a85f9e)" d="M 67.742221 111.396997 
L 75.332672 116.128282 
L 66.993374 119.361872 
" style="fill:none;stroke:#000000;stroke-linecap:round;"/>
   </g>
   <g id="patch_4">
    <path clip-path="url(#p45d7a85f9e)" d="M 39.759838 111.625359 
Q 53.229955 103.889653 65.730543 96.710735 
" style="fill:none;stroke:#000000;stroke-linecap:round;"/>
    <path clip-path="url(#p45d7a85f9e)" d="M 56.80113 97.226089 
L 65.730543 96.710735 
L 60.785178 104.163478 
" style="fill:none;stroke:#000000;stroke-linecap:round;"/>
   </g>
   <g id="patch_5">
    <path clip-path="url(#p45d7a85f9e)" d="M 37.947034 110.621079 
Q 37.376908 96.270571 36.851166 83.037217 
" style="fill:none;stroke:#000000;stroke-linecap:round;"/>
    <path clip-path="url(#p45d7a85f9e)" d="M 33.171897 91.1897 
L 36.851166 83.037217 
L 41.165591 90.872122 
" style="fill:none;stroke:#000000;stroke-linecap:round;"/>
   </g>
   <g id="text_1">
    <!-- \{0, 0, 0\} -->
    <defs>
     <path d="M 28.296875 61.90625 
C 28.296875 65.953125 30.90625 72.40625 41.796875 72.40625 
C 42.296875 72.53125 42.703125 73 42.703125 73.71875 
C 42.703125 75 41.90625 75 40.796875 75 
C 30.796875 75 21.703125 69.859375 21.59375 62.390625 
L 21.59375 39.40625 
C 21.59375 35.46875 21.59375 32.234375 17.59375 28.921875 
C 14.09375 26 10.296875 26 8.09375 26 
C 7.59375 25.890625 7.203125 25.40625 7.203125 24.6875 
C 7.203125 23.5 7.796875 23.5 8.796875 23.5 
C 15.40625 23.5 20.203125 19.90625 21.296875 15 
C 21.59375 13.90625 21.59375 13.703125 21.59375 10.09375 
L 21.59375 -9.703125 
C 21.59375 -13.90625 21.59375 -17.09375 26.40625 -20.90625 
C 30.296875 -23.90625 36.90625 -25 40.796875 -25 
C 41.90625 -25 42.703125 -25 42.703125 -23.90625 
C 42.703125 -22.703125 42.09375 -22.703125 41.09375 -22.703125 
C 34.796875 -22.703125 29.90625 -19.5 28.59375 -14.375 
C 28.296875 -13.484375 28.296875 -13.28125 28.296875 -9.671875 
L 28.296875 11.359375 
C 28.296875 15.984375 27.5 17.6875 24.296875 20.890625 
C 22.203125 23 19.296875 24 16.5 24.796875 
C 24.703125 27.125 28.296875 31.78125 28.296875 37.640625 
z
" id="CMSY10-102"/>
     <path d="M 43.09375 31.9375 
C 43.09375 37.578125 43 48.078125 38.90625 56.1875 
C 34.796875 64 28.203125 66.078125 23.5 66.078125 
C 16.703125 66.078125 10.90625 62.109375 7.90625 55.78125 
C 4.703125 49.15625 3.796875 42.328125 3.796875 31.9375 
C 3.796875 24.828125 4.09375 16.109375 7.703125 8.484375 
C 11.796875 0.078125 18.703125 -2 23.40625 -2 
C 29.59375 -2 35.59375 1.265625 39 8.09375 
C 42.5 15.21875 43.09375 23.03125 43.09375 31.9375 
z
M 23.40625 4.078125 
C 15.796875 4.078125 13.5 12.671875 12.796875 15.546875 
C 11.59375 20.46875 11.40625 25.21875 11.40625 33.03125 
C 11.40625 39.15625 11.40625 46.0625 13.296875 51.515625 
C 15.59375 57.828125 19.59375 60 23.40625 60 
C 30.796875 60 33.203125 52.6875 34 50.125 
C 35.5 44.890625 35.5 38.765625 35.5 33.03125 
C 35.5 23.84375 35.5 4.078125 23.40625 4.078125 
z
" id="CMSS17-48"/>
     <path d="M 17 0.09375 
L 17 7.96875 
L 9 7.96875 
L 9 0 
L 11.5 0 
L 8.90625 -12.5 
L 12.90625 -12.5 
z
" id="CMSS17-44"/>
     <path d="M 21.59375 -12.0625 
C 21.59375 -16.078125 19 -22.5 8.09375 -22.5 
C 7.59375 -22.625 7.203125 -23.0625 7.203125 -23.765625 
C 7.203125 -25 8.296875 -25 9.203125 -25 
C 18.90625 -25 28.203125 -20.109375 28.296875 -12.53125 
L 28.296875 10.234375 
C 28.296875 14.125 28.296875 17.328125 32.296875 20.609375 
C 35.796875 23.5 39.59375 23.5 41.796875 23.5 
C 42.296875 23.609375 42.703125 24.09375 42.703125 24.8125 
C 42.703125 26 42.09375 26 41.09375 26 
C 34.5 26 29.703125 29.625 28.59375 34.59375 
C 28.296875 35.6875 28.296875 35.890625 28.296875 39.546875 
L 28.296875 59.546875 
C 28.296875 63.796875 28.296875 67.015625 23.5 70.859375 
C 19.5 73.984375 12.59375 75 9.203125 75 
C 8.296875 75 7.203125 75 7.203125 73.75 
C 7.203125 72.59375 7.796875 72.59375 8.796875 72.59375 
C 15.09375 72.59375 20 69.359375 21.296875 64.21875 
C 21.59375 63.3125 21.59375 63.109375 21.59375 59.484375 
L 21.59375 38.3125 
C 21.59375 33.671875 22.40625 31.953125 25.59375 28.734375 
C 27.703125 26.609375 30.59375 25.59375 33.40625 24.796875 
C 25.203125 22.484375 21.59375 17.859375 21.59375 12.046875 
z
" id="CMSY10-103"/>
    </defs>
    <g transform="translate(49.517339 155.343497)scale(0.1 -0.1)">
     <use transform="scale(0.996264)" xlink:href="#CMSY10-102"/>
     <use transform="translate(49.813383 0)scale(0.996264)" xlink:href="#CMSS17-48"/>
     <use transform="translate(96.657006 0)scale(0.996264)" xlink:href="#CMSS17-44"/>
     <use transform="translate(153.910324 0)scale(0.996264)" xlink:href="#CMSS17-48"/>
     <use transform="translate(200.753948 0)scale(0.996264)" xlink:href="#CMSS17-44"/>
     <use transform="translate(258.007265 0)scale(0.996264)" xlink:href="#CMSS17-48"/>
     <use transform="translate(304.850889 0)scale(0.996264)" xlink:href="#CMSY10-103"/>
    </g>
   </g>
   <g id="text_2">
    <!-- \{0, 0, 1\} -->
    <defs>
     <path d="M 28.40625 67 
L 26.5 67 
C 21.09375 61.5625 14.796875 60.78125 8.40625 60.78125 
L 8.40625 55 
C 11.296875 55 16 55 20.703125 57.296875 
L 20.703125 5.765625 
L 8.90625 5.765625 
L 8.90625 0 
L 40.203125 0 
L 40.203125 5.765625 
L 28.40625 5.765625 
z
" id="CMSS17-49"/>
    </defs>
    <g transform="translate(47.628682 67.022217)scale(0.1 -0.1)">
     <use transform="scale(0.996264)" xlink:href="#CMSY10-102"/>
     <use transform="translate(49.813383 0)scale(0.996264)" xlink:href="#CMSS17-48"/>
     <use transform="translate(96.657006 0)scale(0.996264)" xlink:href="#CMSS17-44"/>
     <use transform="translate(153.910324 0)scale(0.996264)" xlink:href="#CMSS17-48"/>
     <use transform="translate(200.753948 0)scale(0.996264)" xlink:href="#CMSS17-44"/>
     <use transform="translate(258.007265 0)scale(0.996264)" xlink:href="#CMSS17-49"/>
     <use transform="translate(304.850889 0)scale(0.996264)" xlink:href="#CMSY10-103"/>
    </g>
   </g>
   <g id="text_3">
    <!-- \{0, 1, 0\} -->
    <g transform="translate(94.623879 123.569178)scale(0.1 -0.1)">
     <use transform="scale(0.996264)" xlink:href="#CMSY10-102"/>
     <use transform="translate(49.813383 0)scale(0.996264)" xlink:href="#CMSS17-48"/>
     <use transform="translate(96.657006 0)scale(0.996264)" xlink:href="#CMSS17-44"/>
     <use transform="translate(153.910324 0)scale(0.996264)" xlink:href="#CMSS17-49"/>
     <use transform="translate(200.753948 0)scale(0.996264)" xlink:href="#CMSS17-44"/>
     <use transform="translate(258.007265 0)scale(0.996264)" xlink:href="#CMSS17-48"/>
     <use transform="translate(304.850889 0)scale(0.996264)" xlink:href="#CMSY10-103"/>
    </g>
   </g>
   <g id="text_4">
    <!-- \{0, 1, 1\} -->
    <g transform="translate(94.239318 41.153588)scale(0.1 -0.1)">
     <use transform="scale(0.996264)" xlink:href="#CMSY10-102"/>
     <use transform="translate(49.813383 0)scale(0.996264)" xlink:href="#CMSS17-48"/>
     <use transform="translate(96.657006 0)scale(0.996264)" xlink:href="#CMSS17-44"/>
     <use transform="translate(153.910324 0)scale(0.996264)" xlink:href="#CMSS17-49"/>
     <use transform="translate(200.753948 0)scale(0.996264)" xlink:href="#CMSS17-44"/>
     <use transform="translate(258.007265 0)scale(0.996264)" xlink:href="#CMSS17-49"/>
     <use transform="translate(304.850889 0)scale(0.996264)" xlink:href="#CMSY10-103"/>
    </g>
   </g>
   <g id="text_5">
    <!-- \{1, 0, 0\} -->
    <g transform="translate(122.580568 101.357917)scale(0.1 -0.1)">
     <use transform="scale(0.996264)" xlink:href="#CMSY10-102"/>
     <use transform="translate(49.813383 0)scale(0.996264)" xlink:href="#CMSS17-49"/>
     <use transform="translate(96.657006 0)scale(0.996264)" xlink:href="#CMSS17-44"/>
     <use transform="translate(153.910324 0)scale(0.996264)" xlink:href="#CMSS17-48"/>
     <use transform="translate(200.753948 0)scale(0.996264)" xlink:href="#CMSS17-44"/>
     <use transform="translate(258.007265 0)scale(0.996264)" xlink:href="#CMSS17-48"/>
     <use transform="translate(304.850889 0)scale(0.996264)" xlink:href="#CMSY10-103"/>
    </g>
   </g>
   <g id="text_6">
    <!-- \{2, 0, 0\} -->
    <defs>
     <path d="M 25.796875 21.203125 
C 28.59375 24.078125 32.796875 27.5625 35.703125 31.046875 
C 38.5 34.4375 42.203125 39.234375 42.203125 46.203125 
C 42.203125 57.140625 34.796875 67 22.203125 67 
C 12.296875 67 6.59375 60.828125 3.90625 51.15625 
L 7.796875 45.765625 
C 10 54.84375 13.09375 60.625 20.90625 60.625 
C 29.5 60.625 34.296875 53.640625 34.296875 45.96875 
C 34.296875 36.796875 27.296875 29.703125 22 24.421875 
C 16.09375 18.546875 10.296875 12.5625 4.703125 6.375 
L 4.703125 0 
L 42.203125 0 
L 42.203125 6.765625 
L 25.203125 6.765625 
C 24 6.765625 22.796875 6.765625 21.59375 6.765625 
L 11.59375 6.765625 
L 11.59375 6.859375 
z
" id="CMSS17-50"/>
    </defs>
    <g transform="translate(153.105143 166.200207)scale(0.1 -0.1)">
     <use transform="scale(0.996264)" xlink:href="#CMSY10-102"/>
     <use transform="translate(49.813383 0)scale(0.996264)" xlink:href="#CMSS17-50"/>
     <use transform="translate(96.657006 0)scale(0.996264)" xlink:href="#CMSS17-44"/>
     <use transform="translate(153.910324 0)scale(0.996264)" xlink:href="#CMSS17-48"/>
     <use transform="translate(200.753948 0)scale(0.996264)" xlink:href="#CMSS17-44"/>
     <use transform="translate(258.007265 0)scale(0.996264)" xlink:href="#CMSS17-48"/>
     <use transform="translate(304.850889 0)scale(0.996264)" xlink:href="#CMSY10-103"/>
    </g>
   </g>
   <g id="text_7">
    <!-- \{2, 0, 1\} -->
    <g transform="translate(154.635983 75.890266)scale(0.1 -0.1)">
     <use transform="scale(0.996264)" xlink:href="#CMSY10-102"/>
     <use transform="translate(49.813383 0)scale(0.996264)" xlink:href="#CMSS17-50"/>
     <use transform="translate(96.657006 0)scale(0.996264)" xlink:href="#CMSS17-44"/>
     <use transform="translate(153.910324 0)scale(0.996264)" xlink:href="#CMSS17-48"/>
     <use transform="translate(200.753948 0)scale(0.996264)" xlink:href="#CMSS17-44"/>
     <use transform="translate(258.007265 0)scale(0.996264)" xlink:href="#CMSS17-49"/>
     <use transform="translate(304.850889 0)scale(0.996264)" xlink:href="#CMSY10-103"/>
    </g>
   </g>
   <g id="text_8">
    <!-- \{2, 1, 0\} -->
    <g transform="translate(191.285715 132.831966)scale(0.1 -0.1)">
     <use transform="scale(0.996264)" xlink:href="#CMSY10-102"/>
     <use transform="translate(49.813383 0)scale(0.996264)" xlink:href="#CMSS17-50"/>
     <use transform="translate(96.657006 0)scale(0.996264)" xlink:href="#CMSS17-44"/>
     <use transform="translate(153.910324 0)scale(0.996264)" xlink:href="#CMSS17-49"/>
     <use transform="translate(200.753948 0)scale(0.996264)" xlink:href="#CMSS17-44"/>
     <use transform="translate(258.007265 0)scale(0.996264)" xlink:href="#CMSS17-48"/>
     <use transform="translate(304.850889 0)scale(0.996264)" xlink:href="#CMSY10-103"/>
    </g>
   </g>
   <g id="text_9">
    <!-- \{2, 1, 1\} -->
    <g transform="translate(193.871814 48.681636)scale(0.1 -0.1)">
     <use transform="scale(0.996264)" xlink:href="#CMSY10-102"/>
     <use transform="translate(49.813383 0)scale(0.996264)" xlink:href="#CMSS17-50"/>
     <use transform="translate(96.657006 0)scale(0.996264)" xlink:href="#CMSS17-44"/>
     <use transform="translate(153.910324 0)scale(0.996264)" xlink:href="#CMSS17-49"/>
     <use transform="translate(200.753948 0)scale(0.996264)" xlink:href="#CMSS17-44"/>
     <use transform="translate(258.007265 0)scale(0.996264)" xlink:href="#CMSS17-49"/>
     <use transform="translate(304.850889 0)scale(0.996264)" xlink:href="#CMSY10-103"/>
    </g>
   </g>
   <g id="text_10">
    <!-- $\lambda_1$ -->
    <defs>
     <path d="M 30.90625 61.953125 
C 28.40625 69 20.5 69 19.203125 69 
C 18.59375 69 17.5 69 17.5 68 
C 17.5 67.21875 18.09375 67.109375 18.59375 67.015625 
C 20.09375 66.8125 21.296875 66.609375 22.90625 63.75 
C 23.90625 61.859375 34.203125 32.171875 34.203125 31.96875 
C 34.203125 31.875 34.09375 31.765625 33.296875 30.96875 
L 7.296875 4.859375 
C 6.09375 3.65625 5.296875 2.859375 5.296875 1.59375 
C 5.296875 0.1875 6.5 -1 8.09375 -1 
C 8.5 -1 9.59375 -0.796875 10.203125 -0.203125 
C 11.796875 1.28125 26.09375 18.65625 35.203125 29.390625 
C 37.796875 21.609375 41 12.453125 44.09375 4.078125 
C 44.59375 2.59375 45.09375 1.1875 46.5 -0.09375 
C 47.5 -1 47.703125 -1 50.5 -1 
L 52.40625 -1 
C 52.796875 -1 53.5 -1 53.5 -0.203125 
C 53.5 0.203125 53.40625 0.296875 53 0.703125 
C 52.09375 1.796875 51.40625 3.578125 51 4.78125 
z
" id="CMMI12-21"/>
     <path d="M 26.59375 63.40625 
C 26.59375 65.5 26.5 65.5 25.09375 65.5 
C 21.203125 61.1875 15.296875 59.796875 9.703125 59.796875 
C 9.40625 59.796875 8.90625 59.796875 8.796875 59.5 
C 8.703125 59.296875 8.703125 59.09375 8.703125 57 
C 11.796875 57 17 57.59375 21 59.984375 
L 21 7.203125 
C 21 3.6875 20.796875 2.5 12.203125 2.5 
L 9.203125 2.5 
L 9.203125 0 
C 14 0 19 0 23.796875 0 
C 28.59375 0 33.59375 0 38.40625 0 
L 38.40625 2.5 
L 35.40625 2.5 
C 26.796875 2.5 26.59375 3.59375 26.59375 7.15625 
z
" id="CMR17-49"/>
    </defs>
    <g transform="translate(62.48641 111.941242)scale(0.14 -0.14)">
     <use transform="translate(0 14.943915)scale(0.996264)" xlink:href="#CMMI12-21"/>
     <use transform="translate(56.904072 0)scale(0.697382)" xlink:href="#CMR17-49"/>
    </g>
   </g>
   <g id="text_11">
    <!-- $\lambda_2$ -->
    <defs>
     <path d="M 41.703125 15.453125 
L 39.90625 15.453125 
C 38.90625 8.375 38.09375 7.171875 37.703125 6.5625 
C 37.203125 5.765625 30 5.765625 28.59375 5.765625 
L 9.40625 5.765625 
C 13 9.671875 20 16.75 28.5 24.953125 
C 34.59375 30.734375 41.703125 37.53125 41.703125 47.421875 
C 41.703125 59.21875 32.296875 66 21.796875 66 
C 10.796875 66 4.09375 56.3125 4.09375 47.34375 
C 4.09375 43.4375 7 42.9375 8.203125 42.9375 
C 9.203125 42.9375 12.203125 43.546875 12.203125 47.03125 
C 12.203125 50.109375 9.59375 51 8.203125 51 
C 7.59375 51 7 50.90625 6.59375 50.703125 
C 8.5 59.21875 14.296875 63.40625 20.40625 63.40625 
C 29.09375 63.40625 34.796875 56.515625 34.796875 47.421875 
C 34.796875 38.734375 29.703125 31.25 24 24.75 
L 4.09375 2.28125 
L 4.09375 0 
L 39.296875 0 
z
" id="CMR17-50"/>
    </defs>
    <g transform="translate(43.630104 94.511411)scale(0.14 -0.14)">
     <use transform="translate(0 14.943915)scale(0.996264)" xlink:href="#CMMI12-21"/>
     <use transform="translate(56.904072 0)scale(0.697382)" xlink:href="#CMR17-50"/>
    </g>
   </g>
   <g id="text_12">
    <!-- $\lambda_3$ -->
    <defs>
     <path d="M 22.09375 33.703125 
C 31 33.703125 34.90625 25.96875 34.90625 17.03125 
C 34.90625 5 28.5 0.390625 22.703125 0.390625 
C 17.40625 0.390625 8.796875 3.03125 6.09375 10.828125 
C 6.59375 10.625 7.09375 10.625 7.59375 10.625 
C 10 10.625 11.796875 12.21875 11.796875 14.8125 
C 11.796875 17.703125 9.59375 19 7.59375 19 
C 5.90625 19 3.296875 18.203125 3.296875 14.46875 
C 3.296875 5.234375 12.296875 -2 22.90625 -2 
C 34 -2 42.5 6.71875 42.5 16.953125 
C 42.5 26.671875 34.5 33.703125 25 34.796875 
C 32.59375 36.375 39.90625 43.0625 39.90625 52.015625 
C 39.90625 59.6875 32 65.296875 23 65.296875 
C 13.90625 65.296875 5.90625 59.828125 5.90625 52.015625 
C 5.90625 48.59375 8.5 48 9.796875 48 
C 11.90625 48 13.703125 49.296875 13.703125 51.890625 
C 13.703125 54.46875 11.90625 55.765625 9.796875 55.765625 
C 9.40625 55.765625 8.90625 55.765625 8.5 55.578125 
C 11.40625 61.859375 19.296875 63 22.796875 63 
C 26.296875 63 32.90625 61.328125 32.90625 51.875 
C 32.90625 49.109375 32.5 44.1875 29.09375 39.84375 
C 26.09375 36 22.703125 36 19.40625 35.6875 
C 18.90625 35.6875 16.59375 35.453125 16.203125 35.453125 
C 15.5 35.359375 15.09375 35.265625 15.09375 34.5 
C 15.09375 33.796875 15.203125 33.703125 17.203125 33.703125 
z
" id="CMR17-51"/>
    </defs>
    <g transform="translate(20.267062 103.443905)scale(0.14 -0.14)">
     <use transform="translate(0 14.943915)scale(0.996264)" xlink:href="#CMMI12-21"/>
     <use transform="translate(56.904072 0)scale(0.697382)" xlink:href="#CMR17-51"/>
    </g>
   </g>
  </g>
 </g>
 <defs>
  <clipPath id="p45d7a85f9e">
   <rect height="186" width="258" x="15" y="15"/>
  </clipPath>
 </defs>
</svg>
